<svg id="Capa_1" data-name="Capa 1" xmlns="http://www.w3.org/2000/svg" viewBox="0 0 538.37 374.63"><defs><style>.cls-1{fill:#8c735a;}</style></defs><g id="Capa_1-2" data-name="Capa 1"><path class="cls-1" d="M405.53,498.39v51.94H327.09V656.82h98.69v51.94H270V345.15H425.78v52H327.09V498.39Z" transform="translate(-270 -338.29)"/><path class="cls-1" d="M660.83,361.92q21.28-23.62,62.85-23.63t62.85,23.63q21.3,23.65,21.3,67.79v11.43h-54V426.08q0-18.7-7.28-27.27t-21.29-8.57q-14,0-21.3,8.57t-7.27,27.27q0,22.86,12.2,40t36.62,39a441.15,441.15,0,0,1,32.73,33,133,133,0,0,1,21.3,34.54q8.84,20.25,8.83,46.23,0,44.16-21.82,67.79t-63.37,23.63q-41.56,0-63.37-23.63T638,618.79V596.45h54v26q0,35.32,29.61,35.32t29.61-35.32q0-22.86-12.21-40t-36.62-39a441,441,0,0,1-32.72-33,132.43,132.43,0,0,1-21.3-34.55q-8.83-20.25-8.83-46.23Q639.53,385.55,660.83,361.92Z" transform="translate(-270 -338.29)"/><path class="cls-1" d="M597.59,364.89Q575.24,341,533.18,341t-64.42,23.89q-22.33,23.89-22.33,67.53V621.5q0,43.62,22.33,67.52t64.42,23.9q42.08,0,64.41-23.9t22.33-67.52V432.42Q619.92,388.79,597.59,364.89ZM563,457.11h-.23v168q0,35.85-29.6,35.85t-29.61-35.85v-168H469l64.17-64.17,64.39,64.17Z" transform="translate(-270 -338.29)"/></g></svg>