<?xml version="1.0" encoding="utf-8"?>
<!-- Generator: Adobe Illustrator 25.4.1, SVG Export Plug-In . SVG Version: 6.00 Build 0)  -->
<svg version="1.1" id="Capa_1" xmlns="http://www.w3.org/2000/svg" xmlns:xlink="http://www.w3.org/1999/xlink" x="0px" y="0px"
	 viewBox="0 0 5800 2104" style="enable-background:new 0 0 5800 2104;" xml:space="preserve">
<style type="text/css">
	.st0{fill:#016C9C;}
</style>
<g transform="translate(0.000000,2104.000000) scale(0.100000,-0.100000)">
	<path class="st0" d="M0,15926c0-3490,3-5163,11-5268c42-615,193-1203,440-1716c100-209,158-311,285-502
		c639-965,1661-1546,3014-1715c399-50,297-48,3083-52l2637-4v1916v1917l-1752-2c-1289-2-1771,1-1822,9c-272,46-459,113-628,224
		c-263,173-416,415-484,767c-18,91-19,269-22,4818l-2,4722H2380H0V15926z"/>
	<path class="st0" d="M16490,17589c-1741-97-3100-602-4114-1528c-281-257-557-583-780-924c-530-807-859-1813-936-2862
		c-7-93-10-2156-10-6202V10h2430h2430v5913c0,3586,4,5950,10,6008c35,364,176,666,419,902c247,240,545,364,950,397
		c218,18,518-11,696-67c419-132,735-523,837-1037c31-157,31-414,0-571c-74-372-262-687-507-850c-205-137-490-227-856-271
		c-149-18-548-24-716-11l-103,8V8552V6672l33-6c17-3,100-12,182-21c876-87,1726-40,2522,140c1328,302,2442,954,3304,1935
		c420,478,732,1249,858,2125c148,1024,58,2069-259,3025c-543,1637-1695,2804-3312,3355c-600,205-1220,320-1958,365
		C17419,17601,16703,17601,16490,17589z"/>
	<path class="st0" d="M24350,9995V6560h1150h1150l2,1483l3,1482l27,57c51,110,145,190,274,235c71,24,93,27,214,28
		c112,0,147-4,205-22c129-41,224-130,265-249c20-56,20-95,20-1536V6560h1125h1125l-3,1698c-3,1852,1,1715-58,1982
		c-96,427-319,776-624,979c-631,418-1425,464-2262,131c-46-18-130-56-188-85l-105-52v1109v1108h-1160h-1160V9995z"/>
	<path class="st0" d="M48655,11770c-583-37-1190-279-1670-664l-101-82l-80,74c-352,329-789,546-1281,634c-113,20-161,23-403,23
		c-216,0-298-4-385-18c-622-100-1158-347-1517-699c-334-328-551-777-598-1237c-6-67-10-654-10-1672V6560h1130h1130l2,1478l3,1477
		l27,57c49,104,129,174,254,220c88,32,280,32,381,0c136-42,248-154,292-290c21-62,21-75,21-1502V6560h1055h1055v1456v1456l33,62
		c69,130,207,237,349,271c232,54,423-37,530-252l43-86l3-1454l2-1453h1115h1115l-2,1653l-3,1652l-28,135c-88,415-272,777-542,1059
		C50116,11541,49373,11815,48655,11770z"/>
	<path class="st0" d="M33365,11634c-1074-84-1822-544-2234-1375c-139-279-234-584-282-909c-31-206-34-591-6-770
		c87-556,339-1010,745-1343c478-390,1214-627,2062-662c74-3,186-8,248-11l112-5v921v921l-67-8c-115-13-301-8-384,10
		c-289,66-442,257-456,572c-7,143,7,239,46,322c75,157,253,291,456,343c306,78,665-91,808-379l42-84l3-1309l2-1308h1130h1130
		l-3,1393l-3,1392l-28,115c-126,518-368,970-704,1321c-381,398-886,664-1487,784c-274,55-402,67-760,70
		C33559,11636,33393,11636,33365,11634z"/>
	<path class="st0" d="M54495,11629c-1188-107-1976-694-2332-1734c-105-308-153-610-153-957c0-299,31-506,110-750
		c218-664,739-1150,1506-1404c405-134,821-198,1427-218l147-5v920v920l-72-8c-40-4-129-7-198-7c-215,3-364,57-481,173
		c-115,116-162,248-162,461c0,209,36,304,164,432c64,64,94,85,181,127c139,67,221,85,346,78c191-11,346-81,489-222
		c75-74,99-105,130-170l38-80l3-1312l2-1313h1130h1130l-2,1408l-3,1407l-42,155c-164,615-503,1145-958,1497
		c-415,322-903,510-1525,589C55222,11634,54649,11643,54495,11629z"/>
	<path class="st0" d="M41600,11553c-697-38-1230-308-1470-746l-45-82l-3,413l-2,412h-1210h-1210V9055V6560h1215h1215v1013
		c0,640,4,1054,11,1126c38,409,225,713,559,912c151,90,404,170,645,205c129,19,514,26,613,11l52-8v864v864l-77,7
		C41820,11560,41717,11560,41600,11553z"/>
	<path class="st0" d="M25480,3805c-408-67-697-289-859-659c-110-250-139-457-148-1051c-8-514,14-901,62-1109c23-100,72-232,123-330
		c155-301,409-495,747-568c131-28,407-36,541-15c233,37,448,135,608,278c115,102,256,326,256,405c0,82-45,135-120,142
		c-80,7-103-8-177-120c-175-267-375-394-675-429c-116-14-268-3-388,27c-166,41-331,149-435,284c-198,258-243,530-232,1410
		c7,565,25,730,100,914c137,335,373,510,738,546c366,36,682-107,866-390c76-117,88-132,114-146c47-24,122-18,158,11
		c61,52,64,130,9,238c-141,280-405,474-753,552C25916,3818,25592,3824,25480,3805z"/>
	<path class="st0" d="M28506,3805c-400-65-678-264-853-609c-50-99-105-256-128-364c-48-228-70-706-55-1179c13-403,39-591,107-788
		c186-536,578-805,1175-805c249,0,423,36,603,124c224,110,379,266,495,496c145,288,190,586,190,1260c0,572-37,891-130,1126
		c-160,403-429,637-835,726C28954,3819,28635,3826,28506,3805z M28870,3530c360-38,605-215,740-537c88-209,120-493,120-1053
		c0-785-66-1081-295-1328c-188-202-481-298-803-262c-327,36-557,185-695,450c-124,237-161,491-161,1130c0,650,36,914,160,1150
		c137,261,375,416,690,449C28738,3541,28763,3541,28870,3530z"/>
	<path class="st0" d="M35225,3804c-243-37-465-143-616-293c-112-113-189-248-235-412c-31-114-44-355-25-478c61-390,342-648,821-755
		c63-14,205-37,315-51s238-35,285-45c464-109,663-312,664-675c0-314-181-561-492-675c-285-104-622-100-954,10
		c-113,38-312,132-407,194c-105,67-125,76-182,76c-95,0-149-54-149-150c0-76,20-104,123-172c195-128,449-231,697-283
		c222-47,560-46,790,1c533,110,850,455,876,954c26,482-206,810-680,965c-123,40-259,68-471,95c-206,27-338,54-450,91
		c-245,82-398,215-463,403c-36,105-42,270-13,388c75,317,318,502,708,539c259,24,557-39,842-180c139-68,190-77,248-41
		c62,37,83,132,43,197c-53,87-297,203-554,263C35738,3819,35421,3834,35225,3804z"/>
	<path class="st0" d="M46986,3809c-377-49-684-253-855-569c-160-298-211-609-211-1305c0-653,48-971,186-1247
		c120-240,286-404,517-513c169-79,349-115,586-115c179,0,325,21,461,66c464,154,731,538,800,1149c21,184,31,657,20,952
		c-14,414-38,590-106,784c-163,468-492,741-964,799C47321,3822,47085,3821,46986,3809z M47329,3530c388-40,651-255,769-630
		c57-180,78-375,88-798c7-288-7-674-31-856c-68-513-314-807-745-887c-98-18-319-16-425,5c-189,37-339,118-462,250
		c-77,83-120,149-168,263c-93,215-125,488-125,1063c0,675,43,944,190,1192c77,128,223,261,352,318c73,32,219,70,303,79
		C47191,3541,47217,3541,47329,3530z"/>
	<path class="st0" d="M56489,3805c-377-59-647-240-793-532c-113-227-136-555-55-798c89-266,294-454,614-561c131-44,247-68,455-94
		c433-55,644-129,805-281c121-115,175-251,175-438c-1-292-139-511-405-642c-411-201-972-135-1460,172c-89,56-107,64-160,67
		c-50,3-66,0-95-20c-49-33-72-81-67-141c2-27,13-61,24-75c33-45,150-120,308-197c161-78,252-112,404-150c182-45,235-50,491-49
		c226,0,255,2,372,27c538,114,845,431,888,917c29,332-75,620-288,799c-190,158-428,242-860,301c-437,60-642,137-793,297
		c-106,111-152,238-151,418c1,404,263,660,722,705c258,26,536-32,838-175c94-44,150-65,176-65c111,0,177,106,129,207
		c-21,44-71,81-197,145c-169,85-372,143-591,168C56852,3824,56594,3821,56489,3805z"/>
	<path class="st0" d="M30990,3768c-26-14-53-37-65-58c-20-35-20-49-23-1770c-2-1637-1-1737,15-1770c52-103,213-108,263-9
		c20,37,20,71,20,1529c0,1251,2,1490,14,1490c7,0,413-669,902-1486s904-1503,923-1525c46-55,97-79,168-79c78,0,130,30,161,90l22,44
		v1726c0,1622-1,1727-18,1759c-24,48-62,73-120,79c-58,5-112-16-139-56c-17-26-18-101-23-1525c-3-823-9-1498-13-1500
		c-5-1-412,667-905,1484s-909,1502-924,1521C31190,3787,31077,3812,30990,3768z"/>
	<path class="st0" d="M37640,3772c-23-11-43-33-58-62l-23-45l4-1260c4-1339,3-1303,52-1500c30-120,92-266,156-365
		c208-322,548-480,1029-480c681,0,1090,323,1212,955c21,108,22,133,25,1385c3,1203,2,1277-14,1309c-26,50-64,74-125,78
		c-60,5-104-16-135-64c-17-26-18-95-24-1288c-6-1388-3-1320-69-1520c-48-142-100-227-204-330c-76-76-106-98-186-137
		c-222-109-519-135-781-68c-336,86-540,325-615,720c-17,87-19,199-24,1350c-5,1189-6,1256-23,1282C37799,3787,37707,3806,37640,3772
		z"/>
	<path class="st0" d="M41089,3767c-19-12-42-38-51-57c-17-33-18-138-18-1770c0-1703,0-1736,20-1767c40-67-26-63,1085-63
		c1092,0,1048-2,1093,55c17,22,22,41,22,92c0,57-3,68-28,93c-16,15-46,33-68,39c-27,7-317,11-925,11c-799,0-887,2-893,16
		c-3,9-6,748-6,1643v1628l-23,34C41252,3789,41154,3811,41089,3767z"/>
	<path class="st0" d="M43052,3750c-99-45-97-206,2-251c38-17,76-19,551-19c384,0,514-3,523-12s12-387,12-1640c0-1595,0-1630,20-1667
		c47-93,197-95,257-4c17,26,18,108,23,1673l5,1645l530,5c485,5,533,7,558,23c60,39,80,110,52,183c-14,37-25,50-59,65
		c-39,18-89,19-1236,19C43127,3770,43094,3769,43052,3750z"/>
	<path class="st0" d="M49434,3756c-17-7-40-26-52-41l-22-28V1943c0-1609,1-1748,17-1780c45-96,199-99,260-6c17,25,18,75,21,799
		c2,630,5,774,16,783c9,8,158,10,515,9l502-3l383-789c289-594,393-797,419-824c30-30,44-36,90-40c97-8,157,46,157,143
		c0,46-33,115-370,794c-204,409-370,747-370,750c0,4,21,13,47,19c204,55,407,191,517,346c142,200,206,461,178,734
		c-46,462-315,757-782,860l-115,25l-690,4C49585,3769,49460,3768,49434,3756z M50825,3469c226-31,401-130,504-284
		c143-214,155-567,28-810c-18-33-63-92-103-131c-117-119-275-182-503-204c-143-14-1046-13-1072,0c-19,10-19,29-19,719
		c0,389,3,711,7,714C49678,3485,50741,3481,50825,3469z"/>
	<path class="st0" d="M52750,3757c-19-7-44-27-57-46l-23-34V1941c0-1724,0-1736,20-1769c40-65-12-62,1090-62c976,0,1002,0,1039,20
		c90,46,92,189,4,247c-25,17-90,18-938,23l-910,5v705v705l780,5c717,5,783,6,812,22c49,27,63,55,63,124c0,48-5,67-22,89
		c-44,56-22,55-851,55c-633,0-766,2-776,14c-8,9-10,196-9,682l3,669l910,5c848,5,913,6,938,23c59,39,80,110,53,181
		c-14,36-26,49-60,65c-42,21-52,21-1037,20C53036,3769,52776,3766,52750,3757z"/>
</g>
</svg>
