<?xml version="1.0" standalone="no"?>
<!DOCTYPE svg PUBLIC "-//W3C//DTD SVG 20010904//EN"
 "http://www.w3.org/TR/2001/REC-SVG-20010904/DTD/svg10.dtd">
<svg version="1.0" xmlns="http://www.w3.org/2000/svg"
 width="5800.000000pt" height="2104.000000pt" viewBox="0 0 5800.000000 2104.000000"
 preserveAspectRatio="xMidYMid meet">

<g transform="translate(0.000000,2104.000000) scale(0.100000,-0.100000)"
fill="#000000" stroke="none">
<path d="M0 15872 c0 -4551 2 -5188 15 -5328 122 -1272 675 -2335 1560 -3001
590 -443 1332 -721 2210 -828 72 -8 177 -21 235 -27 75 -8 875 -12 2783 -15
l2677 -4 0 1916 0 1916 -1737 -1 c-1564 -1 -1749 0 -1848 15 -392 58 -683 205
-871 439 -125 155 -216 380 -243 601 -8 64 -11 1440 -11 4788 l0 4697 -2385 0
-2385 0 0 -5168z"/>
<path d="M16615 17599 c-839 -37 -1575 -165 -2260 -394 -637 -212 -1176 -495
-1659 -870 -1102 -855 -1805 -2162 -2006 -3723 -47 -370 -45 -65 -45 -6522 l0
-6085 2437 -3 2438 -2 3 6007 2 6008 23 97 c102 442 351 769 729 957 239 119
499 169 823 158 202 -7 350 -27 470 -63 413 -125 731 -502 841 -997 26 -117
37 -416 20 -539 -46 -319 -202 -646 -394 -824 -224 -208 -582 -333 -1076 -375
-127 -10 -664 -9 -711 2 -13 4 -15 -211 -18 -1878 l-2 -1883 22 -5 c33 -7 268
-32 443 -47 238 -20 1012 -17 1255 5 882 82 1643 279 2360 612 757 352 1455
880 1995 1510 417 486 715 1243 844 2140 47 330 56 470 56 920 0 461 -9 590
-61 955 -144 1009 -510 1927 -1061 2666 -286 383 -653 751 -1028 1029 -1122
835 -2630 1223 -4440 1144z"/>
<path d="M24340 9995 l0 -3435 1155 0 1155 0 2 1478 3 1478 38 76 c61 124 174
207 322 239 87 18 257 16 334 -4 133 -35 237 -122 283 -235 l23 -57 3 -1487 2
-1488 1130 0 1131 0 -4 1673 c-3 1813 0 1706 -57 1972 -51 236 -153 482 -271
657 -229 338 -675 597 -1174 682 -504 87 -1127 -19 -1644 -278 -50 -25 -93
-46 -96 -46 -3 0 -5 497 -5 1105 l0 1105 -1165 0 -1165 0 0 -3435z"/>
<path d="M48570 11770 c-550 -57 -1143 -304 -1579 -657 -46 -37 -90 -72 -97
-78 -10 -7 -33 10 -86 61 -264 255 -634 467 -998 572 -249 73 -427 97 -705 96
-250 -1 -400 -19 -641 -78 -1008 -248 -1626 -825 -1822 -1701 l-26 -120 -3
-1652 -3 -1653 1130 0 1130 0 2 1473 3 1472 32 67 c54 115 158 196 293 229 84
20 252 15 330 -10 124 -39 218 -118 273 -231 l32 -65 3 -1467 2 -1468 1060 0
1060 0 0 1451 0 1451 37 70 c105 200 323 312 539 278 170 -27 297 -138 360
-317 l24 -68 0 -1432 0 -1433 1120 0 1121 0 -3 1628 -3 1627 -24 125 c-134
718 -538 1258 -1176 1570 -239 117 -524 206 -785 245 -124 19 -478 27 -600 15z"/>
<path d="M33475 11644 c-328 -24 -512 -50 -721 -103 -460 -116 -835 -318
-1143 -616 -408 -395 -658 -908 -767 -1575 -21 -129 -30 -554 -14 -691 64
-560 313 -1043 714 -1386 516 -442 1273 -680 2264 -710 l212 -6 -2 924 -3 924
-40 -5 c-22 -3 -116 -5 -210 -5 -130 0 -185 5 -234 18 -311 85 -463 340 -422
712 16 142 56 223 159 325 169 166 401 238 623 192 232 -48 427 -191 522 -382
l32 -65 3 -1317 2 -1318 1135 0 1135 0 -2 1403 -3 1402 -41 155 c-136 510
-366 926 -704 1274 -466 479 -1062 748 -1845 831 -136 15 -548 27 -650 19z"/>
<path d="M54590 11640 c-973 -68 -1673 -433 -2120 -1107 -217 -326 -363 -708
-429 -1123 -82 -510 -38 -961 133 -1372 247 -591 738 -1018 1443 -1254 408
-136 984 -224 1476 -224 l107 0 0 926 c0 878 -1 926 -17 919 -10 -4 -90 -10
-179 -13 -197 -6 -289 10 -414 70 -201 97 -300 281 -300 556 0 135 14 205 56
291 111 225 418 379 682 342 244 -34 468 -188 568 -388 l39 -78 3 -1312 2
-1313 1135 0 1135 0 0 1353 c0 1446 2 1394 -50 1597 -104 411 -291 791 -546
1110 -88 109 -275 296 -384 384 -187 149 -438 297 -660 389 -285 118 -653 205
-1000 237 -163 15 -532 20 -680 10z"/>
<path d="M37660 9060 l0 -2500 1220 0 1220 0 0 1063 c0 1136 1 1155 51 1337
26 93 93 237 149 321 166 246 471 427 850 503 194 39 326 49 585 44 l235 -4 0
868 0 868 -192 0 c-375 0 -663 -50 -947 -162 -310 -124 -572 -345 -711 -601
l-40 -72 0 418 0 417 -1210 0 -1210 0 0 -2500z"/>
<path d="M25605 3824 c-408 -42 -696 -201 -884 -489 -132 -201 -198 -407 -233
-720 -18 -168 -18 -1182 0 -1350 35 -314 104 -528 236 -730 62 -95 237 -262
331 -316 153 -88 316 -138 520 -159 517 -54 988 170 1192 567 67 131 56 220
-34 264 -84 40 -140 15 -210 -94 -119 -185 -220 -281 -378 -357 -153 -74 -208
-85 -420 -85 -153 1 -194 4 -270 23 -229 57 -400 192 -515 404 -115 214 -142
383 -156 963 -7 322 8 770 31 947 20 152 46 244 105 363 92 188 197 297 365
381 148 73 218 87 435 87 159 1 196 -2 265 -21 223 -61 418 -213 534 -415 60
-104 125 -136 210 -101 85 36 105 128 51 242 -136 289 -424 499 -779 572 -95
19 -313 32 -396 24z"/>
<path d="M28583 3819 c-199 -19 -421 -97 -574 -199 -35 -24 -100 -80 -145
-124 -224 -225 -342 -520 -386 -971 -17 -177 -17 -1005 0 -1175 58 -569 244
-923 597 -1132 265 -157 678 -208 1030 -126 351 81 611 292 764 619 116 247
159 486 170 949 7 322 -1 771 -18 920 -47 428 -173 718 -408 941 -245 233
-607 338 -1030 298z m459 -322 c246 -65 419 -208 534 -442 98 -201 127 -365
146 -822 9 -226 9 -360 0 -585 -19 -458 -48 -622 -146 -823 -91 -184 -199
-295 -371 -381 -152 -75 -217 -88 -450 -88 -212 0 -258 7 -407 64 -124 46
-268 163 -350 284 -178 261 -226 560 -215 1354 5 391 13 514 43 682 40 230
137 424 280 561 118 112 264 183 438 214 130 23 376 14 498 -18z"/>
<path d="M35315 3819 c-298 -29 -552 -142 -719 -319 -81 -86 -118 -141 -166
-243 -121 -257 -130 -596 -24 -849 92 -219 300 -397 576 -492 129 -44 273 -74
510 -106 341 -45 517 -97 671 -197 136 -87 218 -204 253 -359 24 -111 16 -282
-19 -385 -93 -275 -334 -451 -691 -505 -136 -21 -393 -14 -524 15 -205 45
-435 141 -617 258 -107 69 -157 82 -219 59 -78 -30 -117 -99 -102 -180 9 -48
37 -80 120 -135 544 -365 1323 -434 1848 -164 255 131 422 338 500 619 19 69
22 104 22 279 0 189 -2 205 -27 288 -76 245 -227 421 -462 537 -183 91 -352
133 -725 184 -102 14 -229 37 -283 50 -318 81 -511 238 -573 466 -24 88 -24
280 0 370 50 187 175 340 347 424 154 74 238 91 469 90 162 0 212 -4 296 -22
139 -30 285 -82 434 -154 173 -84 228 -83 294 6 14 19 21 43 21 75 0 85 -54
139 -224 222 -274 134 -662 200 -986 168z"/>
<path d="M47085 3824 c-345 -35 -582 -139 -775 -341 -47 -48 -107 -120 -133
-160 -124 -187 -205 -441 -239 -748 -18 -168 -18 -1104 0 -1270 27 -242 85
-461 164 -619 106 -213 284 -397 481 -497 84 -43 247 -95 357 -115 129 -24
410 -24 537 -1 451 82 753 343 906 784 87 248 117 527 117 1083 0 556 -30 835
-117 1083 -152 439 -461 705 -908 782 -90 15 -316 27 -390 19z m395 -322 c217
-58 371 -162 482 -326 179 -263 226 -556 215 -1359 -8 -596 -35 -773 -150
-1005 -110 -221 -300 -373 -542 -434 -79 -20 -114 -23 -280 -22 -172 0 -199 3
-287 27 -247 66 -419 208 -534 442 -98 201 -127 365 -146 823 -13 324 -1 783
27 988 32 242 114 456 225 591 127 156 313 257 538 293 98 15 366 5 452 -18z"/>
<path d="M56557 3819 c-205 -23 -431 -103 -571 -203 -182 -130 -302 -306 -364
-535 -23 -87 -26 -114 -26 -281 0 -161 3 -196 22 -265 60 -214 174 -372 359
-492 188 -123 393 -185 773 -233 203 -26 323 -50 442 -90 262 -88 411 -224
474 -436 25 -82 25 -284 1 -374 -73 -268 -292 -456 -619 -532 -79 -19 -124
-22 -298 -22 -175 0 -220 3 -306 22 -205 44 -413 130 -617 255 -152 93 -214
97 -288 21 -32 -33 -34 -39 -34 -104 0 -63 3 -72 30 -101 76 -81 331 -218 538
-288 332 -114 700 -139 1032 -70 469 96 766 358 867 766 29 117 32 368 6 486
-74 328 -291 551 -657 671 -146 48 -204 60 -488 101 -136 20 -289 46 -340 60
-344 91 -526 247 -580 498 -19 89 -12 276 12 357 40 130 118 248 213 322 166
131 369 186 646 175 248 -10 418 -54 670 -174 151 -72 194 -80 254 -49 68 35
94 135 52 203 -67 110 -407 251 -715 298 -129 19 -376 26 -488 14z"/>
<path d="M30995 3776 c-37 -16 -70 -52 -84 -89 -8 -20 -11 -558 -11 -1760 0
-1671 1 -1734 19 -1767 53 -99 207 -99 266 0 20 35 20 47 23 1528 1 820 6
1492 10 1492 4 0 405 -667 892 -1481 494 -828 904 -1503 929 -1530 24 -28 58
-57 75 -66 41 -22 141 -22 182 0 43 22 82 71 89 110 3 18 4 812 3 1764 l-3
1733 -37 37 c-34 34 -43 37 -100 41 -74 4 -116 -17 -145 -70 -17 -31 -18 -113
-23 -1523 -5 -1397 -6 -1488 -22 -1465 -9 14 -415 687 -903 1495 -488 809
-901 1485 -918 1504 -18 18 -46 40 -64 47 -41 18 -139 17 -178 0z"/>
<path d="M37644 3780 c-31 -12 -72 -66 -79 -103 -3 -18 -4 -601 -2 -1297 4
-1384 0 -1302 63 -1525 32 -114 117 -291 182 -375 98 -129 243 -246 387 -310
339 -152 837 -156 1187 -11 178 75 363 233 466 401 86 139 146 316 178 525 18
112 19 199 19 1355 0 1226 0 1235 -21 1274 -52 101 -217 103 -271 4 -17 -31
-18 -106 -24 -1313 -5 -1181 -6 -1286 -23 -1355 -50 -210 -118 -342 -236 -461
-74 -75 -100 -94 -191 -138 -163 -79 -245 -95 -479 -95 -169 0 -207 3 -285 22
-176 44 -337 142 -438 267 -96 119 -173 318 -197 515 -6 54 -10 520 -10 1295
0 1172 -1 1211 -20 1252 -25 56 -70 83 -135 82 -27 0 -59 -4 -71 -9z"/>
<path d="M41083 3769 c-17 -11 -39 -36 -50 -57 -17 -36 -18 -105 -18 -1772 0
-1682 1 -1736 19 -1766 41 -68 -35 -64 1093 -64 967 0 1020 1 1052 18 89 48
93 184 8 246 -28 21 -38 21 -940 26 l-912 5 -5 1635 c-5 1624 -5 1635 -26
1674 -11 22 -35 47 -54 58 -47 25 -126 24 -167 -3z"/>
<path d="M43039 3747 c-44 -29 -59 -60 -59 -122 0 -56 24 -105 62 -127 18 -10
141 -14 553 -18 l530 -5 5 -1640 c5 -1627 5 -1640 25 -1675 59 -100 221 -97
269 4 14 31 16 188 16 1663 0 1254 3 1632 12 1641 9 9 140 12 528 12 481 0
518 1 550 18 96 51 92 217 -5 258 -29 12 -214 14 -1243 14 l-1209 0 -34 -23z"/>
<path d="M49435 3760 c-27 -11 -61 -49 -74 -83 -8 -20 -11 -553 -11 -1745 0
-1645 1 -1719 19 -1757 23 -51 46 -70 96 -84 70 -18 142 11 178 74 9 14 13
234 17 795 l5 775 514 0 513 0 378 -776 c207 -427 387 -791 399 -808 31 -43
77 -65 135 -64 83 1 142 62 140 146 -1 47 -34 119 -372 800 -229 462 -366 749
-359 752 226 69 323 122 451 244 149 143 230 300 272 526 24 132 15 365 -19
496 -44 170 -110 290 -221 408 -151 158 -375 263 -640 300 -92 13 -1390 14
-1421 1z m1350 -290 c341 -39 556 -205 632 -490 25 -93 25 -359 -1 -450 -47
-172 -156 -312 -301 -387 -189 -97 -257 -105 -925 -101 l-525 3 -3 704 c-1
512 1 708 9 717 9 12 103 14 518 14 278 0 547 -5 596 -10z"/>
<path d="M52733 3750 c-18 -10 -40 -31 -50 -47 -17 -26 -18 -108 -21 -1741 -1
-1114 1 -1727 8 -1751 5 -20 24 -50 40 -66 l31 -30 1025 -3 c913 -2 1028 -1
1055 13 92 48 92 207 -2 257 -32 17 -81 18 -929 18 -684 0 -899 3 -908 12 -17
17 -17 1379 0 1396 9 9 195 12 778 12 709 0 768 1 799 18 55 27 76 64 76 130
-1 67 -21 103 -70 126 -29 14 -121 16 -804 16 -751 0 -771 0 -781 19 -15 30
-14 1323 2 1339 9 9 224 12 908 12 849 0 897 1 930 18 93 49 93 208 0 254 -33
17 -103 18 -1045 18 -983 0 -1011 -1 -1042 -20z"/>
</g>
</svg>
